<mxfile host="app.diagrams.net" modified="2022-09-01T16:05:19.817Z" agent="5.0 (Macintosh; Intel Mac OS X 10_15_7) AppleWebKit/537.36 (KHTML, like Gecko) Chrome/104.0.0.0 Safari/537.36" etag="Rjd_ew3BQbyVVxSYEPsa" version="20.2.7" type="github">
  <diagram id="C5RBs43oDa-KdzZeNtuy" name="Page-1">
    <mxGraphModel dx="797" dy="588" grid="1" gridSize="10" guides="1" tooltips="1" connect="1" arrows="1" fold="1" page="1" pageScale="1" pageWidth="827" pageHeight="1169" math="0" shadow="0">
      <root>
        <mxCell id="WIyWlLk6GJQsqaUBKTNV-0" />
        <mxCell id="WIyWlLk6GJQsqaUBKTNV-1" parent="WIyWlLk6GJQsqaUBKTNV-0" />
        <mxCell id="WIyWlLk6GJQsqaUBKTNV-6" value="aluno_trabalho&lt;br&gt;" style="rhombus;whiteSpace=wrap;html=1;shadow=0;fontFamily=Helvetica;fontSize=12;align=center;strokeWidth=1;spacing=6;spacingTop=-4;" parent="WIyWlLk6GJQsqaUBKTNV-1" vertex="1">
          <mxGeometry x="200" y="170" width="100" height="80" as="geometry" />
        </mxCell>
        <mxCell id="wWvR31Q34g6kSzC3Vsf_-0" value="Trabalho" style="rounded=0;whiteSpace=wrap;html=1;" vertex="1" parent="WIyWlLk6GJQsqaUBKTNV-1">
          <mxGeometry x="370" y="180" width="120" height="60" as="geometry" />
        </mxCell>
        <mxCell id="wWvR31Q34g6kSzC3Vsf_-1" value="Aluno" style="rounded=0;whiteSpace=wrap;html=1;" vertex="1" parent="WIyWlLk6GJQsqaUBKTNV-1">
          <mxGeometry x="20" y="180" width="120" height="60" as="geometry" />
        </mxCell>
        <mxCell id="wWvR31Q34g6kSzC3Vsf_-2" value="(1,n)" style="text;html=1;align=center;verticalAlign=middle;resizable=0;points=[];autosize=1;strokeColor=none;fillColor=none;" vertex="1" parent="WIyWlLk6GJQsqaUBKTNV-1">
          <mxGeometry x="135" y="165" width="50" height="30" as="geometry" />
        </mxCell>
        <mxCell id="wWvR31Q34g6kSzC3Vsf_-4" value="" style="endArrow=none;html=1;rounded=0;exitX=1;exitY=0.5;exitDx=0;exitDy=0;entryX=0;entryY=0.5;entryDx=0;entryDy=0;" edge="1" parent="WIyWlLk6GJQsqaUBKTNV-1" source="wWvR31Q34g6kSzC3Vsf_-1" target="WIyWlLk6GJQsqaUBKTNV-6">
          <mxGeometry width="50" height="50" relative="1" as="geometry">
            <mxPoint x="160" y="260" as="sourcePoint" />
            <mxPoint x="180" y="210" as="targetPoint" />
          </mxGeometry>
        </mxCell>
        <mxCell id="wWvR31Q34g6kSzC3Vsf_-5" value="" style="endArrow=none;html=1;rounded=0;entryX=0;entryY=0.5;entryDx=0;entryDy=0;" edge="1" parent="WIyWlLk6GJQsqaUBKTNV-1" source="WIyWlLk6GJQsqaUBKTNV-6">
          <mxGeometry width="50" height="50" relative="1" as="geometry">
            <mxPoint x="310" y="209.5" as="sourcePoint" />
            <mxPoint x="370" y="209.5" as="targetPoint" />
          </mxGeometry>
        </mxCell>
        <mxCell id="wWvR31Q34g6kSzC3Vsf_-6" value="1 -&amp;nbsp;" style="text;html=1;align=center;verticalAlign=middle;resizable=0;points=[];autosize=1;strokeColor=none;fillColor=none;" vertex="1" parent="WIyWlLk6GJQsqaUBKTNV-1">
          <mxGeometry y="145" width="40" height="30" as="geometry" />
        </mxCell>
        <mxCell id="wWvR31Q34g6kSzC3Vsf_-7" value="&lt;span style=&quot;&quot;&gt;Médico&lt;/span&gt;" style="rounded=0;whiteSpace=wrap;html=1;" vertex="1" parent="WIyWlLk6GJQsqaUBKTNV-1">
          <mxGeometry x="770" y="360" width="120" height="60" as="geometry" />
        </mxCell>
        <mxCell id="wWvR31Q34g6kSzC3Vsf_-9" value="mãe" style="rounded=0;whiteSpace=wrap;html=1;" vertex="1" parent="WIyWlLk6GJQsqaUBKTNV-1">
          <mxGeometry x="20" y="360" width="120" height="60" as="geometry" />
        </mxCell>
        <mxCell id="wWvR31Q34g6kSzC3Vsf_-12" value="Bebê" style="rounded=0;whiteSpace=wrap;html=1;" vertex="1" parent="WIyWlLk6GJQsqaUBKTNV-1">
          <mxGeometry x="380" y="360" width="120" height="60" as="geometry" />
        </mxCell>
        <mxCell id="wWvR31Q34g6kSzC3Vsf_-13" value="2 -" style="text;html=1;align=center;verticalAlign=middle;resizable=0;points=[];autosize=1;strokeColor=none;fillColor=none;" vertex="1" parent="WIyWlLk6GJQsqaUBKTNV-1">
          <mxGeometry x="10" y="315" width="40" height="30" as="geometry" />
        </mxCell>
        <mxCell id="wWvR31Q34g6kSzC3Vsf_-20" value="mãe_bebê" style="rhombus;whiteSpace=wrap;html=1;shadow=0;fontFamily=Helvetica;fontSize=12;align=center;strokeWidth=1;spacing=6;spacingTop=-4;" vertex="1" parent="WIyWlLk6GJQsqaUBKTNV-1">
          <mxGeometry x="200" y="350" width="100" height="80" as="geometry" />
        </mxCell>
        <mxCell id="wWvR31Q34g6kSzC3Vsf_-23" value="" style="endArrow=none;html=1;rounded=0;exitX=1;exitY=0.5;exitDx=0;exitDy=0;" edge="1" parent="WIyWlLk6GJQsqaUBKTNV-1" target="wWvR31Q34g6kSzC3Vsf_-12">
          <mxGeometry width="50" height="50" relative="1" as="geometry">
            <mxPoint x="300" y="389.5" as="sourcePoint" />
            <mxPoint x="365" y="390" as="targetPoint" />
          </mxGeometry>
        </mxCell>
        <mxCell id="wWvR31Q34g6kSzC3Vsf_-24" value="" style="endArrow=none;html=1;rounded=0;exitX=0.02;exitY=1;exitDx=0;exitDy=0;entryX=0;entryY=0.5;entryDx=0;entryDy=0;startArrow=none;exitPerimeter=0;" edge="1" parent="WIyWlLk6GJQsqaUBKTNV-1">
          <mxGeometry width="50" height="50" relative="1" as="geometry">
            <mxPoint x="141" y="390" as="sourcePoint" />
            <mxPoint x="200" y="389.5" as="targetPoint" />
          </mxGeometry>
        </mxCell>
        <mxCell id="wWvR31Q34g6kSzC3Vsf_-27" value="" style="endArrow=none;html=1;rounded=0;exitX=0;exitY=0.5;exitDx=0;exitDy=0;entryX=1;entryY=0.5;entryDx=0;entryDy=0;" edge="1" parent="WIyWlLk6GJQsqaUBKTNV-1" source="wWvR31Q34g6kSzC3Vsf_-21" target="wWvR31Q34g6kSzC3Vsf_-12">
          <mxGeometry width="50" height="50" relative="1" as="geometry">
            <mxPoint x="150" y="399.5" as="sourcePoint" />
            <mxPoint x="210" y="399.5" as="targetPoint" />
          </mxGeometry>
        </mxCell>
        <mxCell id="wWvR31Q34g6kSzC3Vsf_-29" value="(1,n)" style="text;html=1;align=center;verticalAlign=middle;resizable=0;points=[];autosize=1;strokeColor=none;fillColor=none;" vertex="1" parent="WIyWlLk6GJQsqaUBKTNV-1">
          <mxGeometry x="330" y="360" width="50" height="30" as="geometry" />
        </mxCell>
        <mxCell id="wWvR31Q34g6kSzC3Vsf_-21" value="bebê_médico" style="rhombus;whiteSpace=wrap;html=1;shadow=0;fontFamily=Helvetica;fontSize=12;align=center;strokeWidth=1;spacing=6;spacingTop=-4;" vertex="1" parent="WIyWlLk6GJQsqaUBKTNV-1">
          <mxGeometry x="590" y="350" width="100" height="80" as="geometry" />
        </mxCell>
        <mxCell id="wWvR31Q34g6kSzC3Vsf_-32" value="" style="endArrow=none;html=1;rounded=0;exitX=0;exitY=0.5;exitDx=0;exitDy=0;entryX=1;entryY=0.5;entryDx=0;entryDy=0;" edge="1" parent="WIyWlLk6GJQsqaUBKTNV-1" source="wWvR31Q34g6kSzC3Vsf_-7" target="wWvR31Q34g6kSzC3Vsf_-21">
          <mxGeometry width="50" height="50" relative="1" as="geometry">
            <mxPoint x="708.96" y="360.48" as="sourcePoint" />
            <mxPoint x="79.5" y="550" as="targetPoint" />
          </mxGeometry>
        </mxCell>
        <mxCell id="wWvR31Q34g6kSzC3Vsf_-35" value="" style="endArrow=none;html=1;rounded=0;exitX=1;exitY=0.5;exitDx=0;exitDy=0;entryX=0;entryY=0.5;entryDx=0;entryDy=0;" edge="1" parent="WIyWlLk6GJQsqaUBKTNV-1">
          <mxGeometry width="50" height="50" relative="1" as="geometry">
            <mxPoint x="140" y="389.5" as="sourcePoint" />
            <mxPoint x="140" y="375" as="targetPoint" />
          </mxGeometry>
        </mxCell>
        <mxCell id="wWvR31Q34g6kSzC3Vsf_-36" value="(1,1)" style="text;html=1;align=center;verticalAlign=middle;resizable=0;points=[];autosize=1;strokeColor=none;fillColor=none;" vertex="1" parent="WIyWlLk6GJQsqaUBKTNV-1">
          <mxGeometry x="140" y="360" width="50" height="30" as="geometry" />
        </mxCell>
        <mxCell id="wWvR31Q34g6kSzC3Vsf_-37" value="(1,n)" style="text;html=1;align=center;verticalAlign=middle;resizable=0;points=[];autosize=1;strokeColor=none;fillColor=none;" vertex="1" parent="WIyWlLk6GJQsqaUBKTNV-1">
          <mxGeometry x="730" y="360" width="50" height="30" as="geometry" />
        </mxCell>
        <mxCell id="wWvR31Q34g6kSzC3Vsf_-38" value="(1,n)" style="text;html=1;align=center;verticalAlign=middle;resizable=0;points=[];autosize=1;strokeColor=none;fillColor=none;" vertex="1" parent="WIyWlLk6GJQsqaUBKTNV-1">
          <mxGeometry x="500" y="360" width="50" height="30" as="geometry" />
        </mxCell>
        <mxCell id="wWvR31Q34g6kSzC3Vsf_-39" value="(1,n)" style="text;html=1;align=center;verticalAlign=middle;resizable=0;points=[];autosize=1;strokeColor=none;fillColor=none;" vertex="1" parent="WIyWlLk6GJQsqaUBKTNV-1">
          <mxGeometry x="320" y="170" width="50" height="30" as="geometry" />
        </mxCell>
        <mxCell id="wWvR31Q34g6kSzC3Vsf_-49" value="&lt;span style=&quot;&quot;&gt;paciente&lt;/span&gt;" style="rounded=0;whiteSpace=wrap;html=1;" vertex="1" parent="WIyWlLk6GJQsqaUBKTNV-1">
          <mxGeometry x="585" y="740" width="120" height="60" as="geometry" />
        </mxCell>
        <mxCell id="wWvR31Q34g6kSzC3Vsf_-50" value="médico" style="rounded=0;whiteSpace=wrap;html=1;" vertex="1" parent="WIyWlLk6GJQsqaUBKTNV-1">
          <mxGeometry x="20" y="585" width="120" height="60" as="geometry" />
        </mxCell>
        <mxCell id="wWvR31Q34g6kSzC3Vsf_-51" value="consulta" style="rounded=0;whiteSpace=wrap;html=1;" vertex="1" parent="WIyWlLk6GJQsqaUBKTNV-1">
          <mxGeometry x="380" y="585" width="120" height="60" as="geometry" />
        </mxCell>
        <mxCell id="wWvR31Q34g6kSzC3Vsf_-52" value="3-" style="text;html=1;align=center;verticalAlign=middle;resizable=0;points=[];autosize=1;strokeColor=none;fillColor=none;" vertex="1" parent="WIyWlLk6GJQsqaUBKTNV-1">
          <mxGeometry x="15" y="500" width="30" height="30" as="geometry" />
        </mxCell>
        <mxCell id="wWvR31Q34g6kSzC3Vsf_-53" value="medico_consulta" style="rhombus;whiteSpace=wrap;html=1;shadow=0;fontFamily=Helvetica;fontSize=12;align=center;strokeWidth=1;spacing=6;spacingTop=-4;" vertex="1" parent="WIyWlLk6GJQsqaUBKTNV-1">
          <mxGeometry x="200" y="575" width="100" height="80" as="geometry" />
        </mxCell>
        <mxCell id="wWvR31Q34g6kSzC3Vsf_-54" value="" style="endArrow=none;html=1;rounded=0;exitX=1;exitY=0.5;exitDx=0;exitDy=0;" edge="1" parent="WIyWlLk6GJQsqaUBKTNV-1" target="wWvR31Q34g6kSzC3Vsf_-51">
          <mxGeometry width="50" height="50" relative="1" as="geometry">
            <mxPoint x="300" y="614.5" as="sourcePoint" />
            <mxPoint x="365" y="615" as="targetPoint" />
          </mxGeometry>
        </mxCell>
        <mxCell id="wWvR31Q34g6kSzC3Vsf_-55" value="" style="endArrow=none;html=1;rounded=0;exitX=0.02;exitY=1;exitDx=0;exitDy=0;entryX=0;entryY=0.5;entryDx=0;entryDy=0;startArrow=none;exitPerimeter=0;" edge="1" parent="WIyWlLk6GJQsqaUBKTNV-1">
          <mxGeometry width="50" height="50" relative="1" as="geometry">
            <mxPoint x="141" y="615" as="sourcePoint" />
            <mxPoint x="200" y="614.5" as="targetPoint" />
          </mxGeometry>
        </mxCell>
        <mxCell id="wWvR31Q34g6kSzC3Vsf_-56" value="" style="endArrow=none;html=1;rounded=0;exitX=0;exitY=0.5;exitDx=0;exitDy=0;entryX=1;entryY=0.5;entryDx=0;entryDy=0;" edge="1" parent="WIyWlLk6GJQsqaUBKTNV-1" source="wWvR31Q34g6kSzC3Vsf_-58" target="wWvR31Q34g6kSzC3Vsf_-51">
          <mxGeometry width="50" height="50" relative="1" as="geometry">
            <mxPoint x="150" y="624.5" as="sourcePoint" />
            <mxPoint x="210" y="624.5" as="targetPoint" />
          </mxGeometry>
        </mxCell>
        <mxCell id="wWvR31Q34g6kSzC3Vsf_-57" value="(1,n)" style="text;html=1;align=center;verticalAlign=middle;resizable=0;points=[];autosize=1;strokeColor=none;fillColor=none;" vertex="1" parent="WIyWlLk6GJQsqaUBKTNV-1">
          <mxGeometry x="330" y="585" width="50" height="30" as="geometry" />
        </mxCell>
        <mxCell id="wWvR31Q34g6kSzC3Vsf_-58" value="consulta_paciente" style="rhombus;whiteSpace=wrap;html=1;shadow=0;fontFamily=Helvetica;fontSize=12;align=center;strokeWidth=1;spacing=6;spacingTop=-4;" vertex="1" parent="WIyWlLk6GJQsqaUBKTNV-1">
          <mxGeometry x="590" y="575" width="110" height="80" as="geometry" />
        </mxCell>
        <mxCell id="wWvR31Q34g6kSzC3Vsf_-59" value="" style="endArrow=none;html=1;rounded=0;entryX=0.5;entryY=1;entryDx=0;entryDy=0;exitX=0.5;exitY=0;exitDx=0;exitDy=0;" edge="1" parent="WIyWlLk6GJQsqaUBKTNV-1" source="wWvR31Q34g6kSzC3Vsf_-49" target="wWvR31Q34g6kSzC3Vsf_-58">
          <mxGeometry width="50" height="50" relative="1" as="geometry">
            <mxPoint x="700" y="720" as="sourcePoint" />
            <mxPoint x="79.5" y="775" as="targetPoint" />
          </mxGeometry>
        </mxCell>
        <mxCell id="wWvR31Q34g6kSzC3Vsf_-60" value="" style="endArrow=none;html=1;rounded=0;exitX=1;exitY=0.5;exitDx=0;exitDy=0;entryX=0;entryY=0.5;entryDx=0;entryDy=0;" edge="1" parent="WIyWlLk6GJQsqaUBKTNV-1">
          <mxGeometry width="50" height="50" relative="1" as="geometry">
            <mxPoint x="140" y="614.5" as="sourcePoint" />
            <mxPoint x="140" y="600" as="targetPoint" />
          </mxGeometry>
        </mxCell>
        <mxCell id="wWvR31Q34g6kSzC3Vsf_-61" value="(1,1)" style="text;html=1;align=center;verticalAlign=middle;resizable=0;points=[];autosize=1;strokeColor=none;fillColor=none;" vertex="1" parent="WIyWlLk6GJQsqaUBKTNV-1">
          <mxGeometry x="140" y="585" width="50" height="30" as="geometry" />
        </mxCell>
        <mxCell id="wWvR31Q34g6kSzC3Vsf_-62" value="(1,1)" style="text;html=1;align=center;verticalAlign=middle;resizable=0;points=[];autosize=1;strokeColor=none;fillColor=none;" vertex="1" parent="WIyWlLk6GJQsqaUBKTNV-1">
          <mxGeometry x="600" y="710" width="50" height="30" as="geometry" />
        </mxCell>
        <mxCell id="wWvR31Q34g6kSzC3Vsf_-63" value="(1,n)" style="text;html=1;align=center;verticalAlign=middle;resizable=0;points=[];autosize=1;strokeColor=none;fillColor=none;" vertex="1" parent="WIyWlLk6GJQsqaUBKTNV-1">
          <mxGeometry x="500" y="585" width="50" height="30" as="geometry" />
        </mxCell>
        <mxCell id="wWvR31Q34g6kSzC3Vsf_-76" value="&lt;meta charset=&quot;utf-8&quot;&gt;&lt;span style=&quot;color: rgb(0, 0, 0); font-family: Helvetica; font-size: 12px; font-style: normal; font-variant-ligatures: normal; font-variant-caps: normal; font-weight: 400; letter-spacing: normal; orphans: 2; text-align: center; text-indent: 0px; text-transform: none; widows: 2; word-spacing: 0px; -webkit-text-stroke-width: 0px; background-color: rgb(248, 249, 250); text-decoration-thickness: initial; text-decoration-style: initial; text-decoration-color: initial; float: none; display: inline !important;&quot;&gt;nome&lt;/span&gt;" style="text;whiteSpace=wrap;html=1;" vertex="1" parent="WIyWlLk6GJQsqaUBKTNV-1">
          <mxGeometry x="12.5" y="676.25" width="30" height="27.5" as="geometry" />
        </mxCell>
        <mxCell id="wWvR31Q34g6kSzC3Vsf_-88" value="" style="ellipse;whiteSpace=wrap;html=1;aspect=fixed;fillColor=#FFFFFF;" vertex="1" parent="WIyWlLk6GJQsqaUBKTNV-1">
          <mxGeometry x="20" y="667.14" width="15" height="15" as="geometry" />
        </mxCell>
        <mxCell id="wWvR31Q34g6kSzC3Vsf_-90" value="" style="ellipse;whiteSpace=wrap;html=1;aspect=fixed;fillColor=#FFFFFF;" vertex="1" parent="WIyWlLk6GJQsqaUBKTNV-1">
          <mxGeometry x="60" y="667.14" width="15" height="15" as="geometry" />
        </mxCell>
        <mxCell id="wWvR31Q34g6kSzC3Vsf_-93" value="" style="ellipse;whiteSpace=wrap;html=1;aspect=fixed;fillColor=#000000;" vertex="1" parent="WIyWlLk6GJQsqaUBKTNV-1">
          <mxGeometry x="60" y="547.5" width="15" height="15" as="geometry" />
        </mxCell>
        <mxCell id="wWvR31Q34g6kSzC3Vsf_-94" value="&lt;span style=&quot;color: rgb(0, 0, 0); font-family: Helvetica; font-size: 12px; font-style: normal; font-variant-ligatures: normal; font-variant-caps: normal; font-weight: 400; letter-spacing: normal; orphans: 2; text-align: center; text-indent: 0px; text-transform: none; widows: 2; word-spacing: 0px; -webkit-text-stroke-width: 0px; background-color: rgb(248, 249, 250); text-decoration-thickness: initial; text-decoration-style: initial; text-decoration-color: initial; float: none; display: inline !important;&quot;&gt;CRM&lt;br&gt;&lt;br&gt;&lt;/span&gt;" style="text;whiteSpace=wrap;html=1;" vertex="1" parent="WIyWlLk6GJQsqaUBKTNV-1">
          <mxGeometry x="75" y="541.25" width="30" height="27.5" as="geometry" />
        </mxCell>
        <mxCell id="wWvR31Q34g6kSzC3Vsf_-99" value="" style="endArrow=none;html=1;rounded=0;entryX=0.396;entryY=-0.002;entryDx=0;entryDy=0;entryPerimeter=0;exitX=0.5;exitY=1;exitDx=0;exitDy=0;" edge="1" parent="WIyWlLk6GJQsqaUBKTNV-1" source="wWvR31Q34g6kSzC3Vsf_-93" target="wWvR31Q34g6kSzC3Vsf_-50">
          <mxGeometry width="50" height="50" relative="1" as="geometry">
            <mxPoint x="60" y="560" as="sourcePoint" />
            <mxPoint x="510" y="610" as="targetPoint" />
          </mxGeometry>
        </mxCell>
        <mxCell id="wWvR31Q34g6kSzC3Vsf_-100" value="" style="endArrow=none;html=1;rounded=0;entryX=0.392;entryY=1.006;entryDx=0;entryDy=0;exitX=0.5;exitY=0;exitDx=0;exitDy=0;entryPerimeter=0;" edge="1" parent="WIyWlLk6GJQsqaUBKTNV-1" source="wWvR31Q34g6kSzC3Vsf_-88">
          <mxGeometry width="50" height="50" relative="1" as="geometry">
            <mxPoint x="80" y="789.64" as="sourcePoint" />
            <mxPoint x="27.040000000000077" y="645" as="targetPoint" />
          </mxGeometry>
        </mxCell>
        <mxCell id="wWvR31Q34g6kSzC3Vsf_-102" value="" style="endArrow=none;html=1;rounded=0;entryX=0.396;entryY=0.998;entryDx=0;entryDy=0;entryPerimeter=0;exitX=0.5;exitY=0;exitDx=0;exitDy=0;" edge="1" parent="WIyWlLk6GJQsqaUBKTNV-1" source="wWvR31Q34g6kSzC3Vsf_-90" target="wWvR31Q34g6kSzC3Vsf_-50">
          <mxGeometry width="50" height="50" relative="1" as="geometry">
            <mxPoint x="120" y="790" as="sourcePoint" />
            <mxPoint x="170" y="740" as="targetPoint" />
          </mxGeometry>
        </mxCell>
        <mxCell id="wWvR31Q34g6kSzC3Vsf_-103" value="&lt;span style=&quot;color: rgb(0, 0, 0); font-family: Helvetica; font-size: 12px; font-style: normal; font-variant-ligatures: normal; font-variant-caps: normal; font-weight: 400; letter-spacing: normal; orphans: 2; text-align: center; text-indent: 0px; text-transform: none; widows: 2; word-spacing: 0px; -webkit-text-stroke-width: 0px; background-color: rgb(248, 249, 250); text-decoration-thickness: initial; text-decoration-style: initial; text-decoration-color: initial; float: none; display: inline !important;&quot;&gt;endereço&lt;/span&gt;" style="text;whiteSpace=wrap;html=1;" vertex="1" parent="WIyWlLk6GJQsqaUBKTNV-1">
          <mxGeometry x="50" y="676.25" width="60" height="20" as="geometry" />
        </mxCell>
        <mxCell id="wWvR31Q34g6kSzC3Vsf_-106" value="" style="ellipse;whiteSpace=wrap;html=1;aspect=fixed;fillColor=#FFFFFF;" vertex="1" parent="WIyWlLk6GJQsqaUBKTNV-1">
          <mxGeometry x="115" y="667.14" width="15" height="15" as="geometry" />
        </mxCell>
        <mxCell id="wWvR31Q34g6kSzC3Vsf_-107" value="&lt;span style=&quot;color: rgb(0, 0, 0); font-family: Helvetica; font-size: 12px; font-style: normal; font-variant-ligatures: normal; font-variant-caps: normal; font-weight: 400; letter-spacing: normal; orphans: 2; text-align: center; text-indent: 0px; text-transform: none; widows: 2; word-spacing: 0px; -webkit-text-stroke-width: 0px; background-color: rgb(248, 249, 250); text-decoration-thickness: initial; text-decoration-style: initial; text-decoration-color: initial; float: none; display: inline !important;&quot;&gt;telefone&lt;br&gt;&lt;br&gt;&lt;/span&gt;" style="text;whiteSpace=wrap;html=1;" vertex="1" parent="WIyWlLk6GJQsqaUBKTNV-1">
          <mxGeometry x="105" y="676.25" width="60" height="20" as="geometry" />
        </mxCell>
        <mxCell id="wWvR31Q34g6kSzC3Vsf_-108" value="" style="endArrow=none;html=1;rounded=0;entryX=0.396;entryY=0.998;entryDx=0;entryDy=0;entryPerimeter=0;exitX=0.5;exitY=0;exitDx=0;exitDy=0;" edge="1" parent="WIyWlLk6GJQsqaUBKTNV-1">
          <mxGeometry width="50" height="50" relative="1" as="geometry">
            <mxPoint x="122.25999999999999" y="667.1399999999999" as="sourcePoint" />
            <mxPoint x="122.27999999999997" y="644.8800000000001" as="targetPoint" />
          </mxGeometry>
        </mxCell>
        <mxCell id="wWvR31Q34g6kSzC3Vsf_-109" value="" style="ellipse;whiteSpace=wrap;html=1;aspect=fixed;fillColor=#FFFFFF;" vertex="1" parent="WIyWlLk6GJQsqaUBKTNV-1">
          <mxGeometry x="602.5" y="822.26" width="15" height="15" as="geometry" />
        </mxCell>
        <mxCell id="wWvR31Q34g6kSzC3Vsf_-110" value="" style="ellipse;whiteSpace=wrap;html=1;aspect=fixed;fillColor=#FFFFFF;" vertex="1" parent="WIyWlLk6GJQsqaUBKTNV-1">
          <mxGeometry x="650" y="822.26" width="15" height="15" as="geometry" />
        </mxCell>
        <mxCell id="wWvR31Q34g6kSzC3Vsf_-111" value="" style="endArrow=none;html=1;rounded=0;entryX=-0.001;entryY=0.78;entryDx=0;entryDy=0;exitX=1;exitY=0.5;exitDx=0;exitDy=0;startArrow=none;entryPerimeter=0;" edge="1" parent="WIyWlLk6GJQsqaUBKTNV-1" source="wWvR31Q34g6kSzC3Vsf_-118" target="wWvR31Q34g6kSzC3Vsf_-49">
          <mxGeometry width="50" height="50" relative="1" as="geometry">
            <mxPoint x="660" y="944.64" as="sourcePoint" />
            <mxPoint x="607.0400000000001" y="800" as="targetPoint" />
          </mxGeometry>
        </mxCell>
        <mxCell id="wWvR31Q34g6kSzC3Vsf_-112" value="" style="endArrow=none;html=1;rounded=0;entryX=0.61;entryY=1.002;entryDx=0;entryDy=0;exitX=0.5;exitY=0;exitDx=0;exitDy=0;entryPerimeter=0;" edge="1" parent="WIyWlLk6GJQsqaUBKTNV-1" source="wWvR31Q34g6kSzC3Vsf_-110" target="wWvR31Q34g6kSzC3Vsf_-49">
          <mxGeometry width="50" height="50" relative="1" as="geometry">
            <mxPoint x="710" y="945.12" as="sourcePoint" />
            <mxPoint x="657.52" y="800.0000000000001" as="targetPoint" />
          </mxGeometry>
        </mxCell>
        <mxCell id="wWvR31Q34g6kSzC3Vsf_-113" value="&lt;span style=&quot;color: rgb(0, 0, 0); font-family: Helvetica; font-size: 12px; font-style: normal; font-variant-ligatures: normal; font-variant-caps: normal; font-weight: 400; letter-spacing: normal; orphans: 2; text-align: center; text-indent: 0px; text-transform: none; widows: 2; word-spacing: 0px; -webkit-text-stroke-width: 0px; background-color: rgb(248, 249, 250); text-decoration-thickness: initial; text-decoration-style: initial; text-decoration-color: initial; float: none; display: inline !important;&quot;&gt;endereço&lt;/span&gt;" style="text;whiteSpace=wrap;html=1;" vertex="1" parent="WIyWlLk6GJQsqaUBKTNV-1">
          <mxGeometry x="637.5" y="837.26" width="60" height="20" as="geometry" />
        </mxCell>
        <mxCell id="wWvR31Q34g6kSzC3Vsf_-114" value="" style="ellipse;whiteSpace=wrap;html=1;aspect=fixed;fillColor=#FFFFFF;" vertex="1" parent="WIyWlLk6GJQsqaUBKTNV-1">
          <mxGeometry x="697.5" y="822.26" width="15" height="15" as="geometry" />
        </mxCell>
        <mxCell id="wWvR31Q34g6kSzC3Vsf_-115" value="&lt;span style=&quot;color: rgb(0, 0, 0); font-family: Helvetica; font-size: 12px; font-style: normal; font-variant-ligatures: normal; font-variant-caps: normal; font-weight: 400; letter-spacing: normal; orphans: 2; text-align: center; text-indent: 0px; text-transform: none; widows: 2; word-spacing: 0px; -webkit-text-stroke-width: 0px; background-color: rgb(248, 249, 250); text-decoration-thickness: initial; text-decoration-style: initial; text-decoration-color: initial; float: none; display: inline !important;&quot;&gt;telefone&lt;br&gt;&lt;br&gt;&lt;/span&gt;" style="text;whiteSpace=wrap;html=1;" vertex="1" parent="WIyWlLk6GJQsqaUBKTNV-1">
          <mxGeometry x="697.5" y="837.26" width="42.5" height="20" as="geometry" />
        </mxCell>
        <mxCell id="wWvR31Q34g6kSzC3Vsf_-116" value="" style="endArrow=none;html=1;rounded=0;entryX=1;entryY=1;entryDx=0;entryDy=0;exitX=0.5;exitY=0;exitDx=0;exitDy=0;" edge="1" parent="WIyWlLk6GJQsqaUBKTNV-1" source="wWvR31Q34g6kSzC3Vsf_-114" target="wWvR31Q34g6kSzC3Vsf_-49">
          <mxGeometry width="50" height="50" relative="1" as="geometry">
            <mxPoint x="692.26" y="822.2599999999999" as="sourcePoint" />
            <mxPoint x="692.28" y="800.0000000000001" as="targetPoint" />
          </mxGeometry>
        </mxCell>
        <mxCell id="wWvR31Q34g6kSzC3Vsf_-117" value="&lt;meta charset=&quot;utf-8&quot;&gt;&lt;span style=&quot;color: rgb(0, 0, 0); font-family: Helvetica; font-size: 12px; font-style: normal; font-variant-ligatures: normal; font-variant-caps: normal; font-weight: 400; letter-spacing: normal; orphans: 2; text-align: center; text-indent: 0px; text-transform: none; widows: 2; word-spacing: 0px; -webkit-text-stroke-width: 0px; background-color: rgb(248, 249, 250); text-decoration-thickness: initial; text-decoration-style: initial; text-decoration-color: initial; float: none; display: inline !important;&quot;&gt;nome&lt;/span&gt;" style="text;whiteSpace=wrap;html=1;fillColor=#FFFFFF;" vertex="1" parent="WIyWlLk6GJQsqaUBKTNV-1">
          <mxGeometry x="595" y="837.26" width="30" height="27.5" as="geometry" />
        </mxCell>
        <mxCell id="wWvR31Q34g6kSzC3Vsf_-119" value="&lt;span style=&quot;color: rgb(0, 0, 0); font-family: Helvetica; font-size: 12px; font-style: normal; font-variant-ligatures: normal; font-variant-caps: normal; font-weight: 400; letter-spacing: normal; orphans: 2; text-align: center; text-indent: 0px; text-transform: none; widows: 2; word-spacing: 0px; -webkit-text-stroke-width: 0px; background-color: rgb(248, 249, 250); text-decoration-thickness: initial; text-decoration-style: initial; text-decoration-color: initial; float: none; display: inline !important;&quot;&gt;CPF&lt;br&gt;&lt;/span&gt;" style="text;whiteSpace=wrap;html=1;" vertex="1" parent="WIyWlLk6GJQsqaUBKTNV-1">
          <mxGeometry x="542.14" y="790" width="30" height="27.5" as="geometry" />
        </mxCell>
        <mxCell id="wWvR31Q34g6kSzC3Vsf_-118" value="" style="ellipse;whiteSpace=wrap;html=1;aspect=fixed;fillColor=#000000;" vertex="1" parent="WIyWlLk6GJQsqaUBKTNV-1">
          <mxGeometry x="550" y="780" width="14.28" height="14.28" as="geometry" />
        </mxCell>
        <mxCell id="wWvR31Q34g6kSzC3Vsf_-121" value="" style="endArrow=none;html=1;rounded=0;entryX=0.206;entryY=0.996;entryDx=0;entryDy=0;exitX=0.5;exitY=0;exitDx=0;exitDy=0;entryPerimeter=0;" edge="1" parent="WIyWlLk6GJQsqaUBKTNV-1" source="wWvR31Q34g6kSzC3Vsf_-109" target="wWvR31Q34g6kSzC3Vsf_-49">
          <mxGeometry width="50" height="50" relative="1" as="geometry">
            <mxPoint x="607.5" y="822.1399999999999" as="sourcePoint" />
            <mxPoint x="607.04" y="800" as="targetPoint" />
          </mxGeometry>
        </mxCell>
        <mxCell id="wWvR31Q34g6kSzC3Vsf_-122" value="" style="ellipse;whiteSpace=wrap;html=1;aspect=fixed;fillColor=#FFFFFF;" vertex="1" parent="WIyWlLk6GJQsqaUBKTNV-1">
          <mxGeometry x="432.5" y="667.14" width="15" height="15" as="geometry" />
        </mxCell>
        <mxCell id="wWvR31Q34g6kSzC3Vsf_-124" value="" style="endArrow=none;html=1;rounded=0;entryX=0.064;entryY=0.991;entryDx=0;entryDy=0;exitX=0.5;exitY=0;exitDx=0;exitDy=0;startArrow=none;entryPerimeter=0;" edge="1" parent="WIyWlLk6GJQsqaUBKTNV-1" source="wWvR31Q34g6kSzC3Vsf_-131" target="wWvR31Q34g6kSzC3Vsf_-51">
          <mxGeometry width="50" height="50" relative="1" as="geometry">
            <mxPoint x="452.5" y="789.52" as="sourcePoint" />
            <mxPoint x="387.0999999999999" y="644.4599999999999" as="targetPoint" />
          </mxGeometry>
        </mxCell>
        <mxCell id="wWvR31Q34g6kSzC3Vsf_-127" value="" style="ellipse;whiteSpace=wrap;html=1;aspect=fixed;fillColor=#FFFFFF;" vertex="1" parent="WIyWlLk6GJQsqaUBKTNV-1">
          <mxGeometry x="475" y="667.14" width="15" height="15" as="geometry" />
        </mxCell>
        <mxCell id="wWvR31Q34g6kSzC3Vsf_-128" value="" style="endArrow=none;html=1;rounded=0;entryX=0.857;entryY=1.007;entryDx=0;entryDy=0;exitX=0.5;exitY=0;exitDx=0;exitDy=0;entryPerimeter=0;" edge="1" parent="WIyWlLk6GJQsqaUBKTNV-1" source="wWvR31Q34g6kSzC3Vsf_-127" target="wWvR31Q34g6kSzC3Vsf_-51">
          <mxGeometry width="50" height="50" relative="1" as="geometry">
            <mxPoint x="484.76" y="667.1399999999999" as="sourcePoint" />
            <mxPoint x="497.5" y="644.88" as="targetPoint" />
          </mxGeometry>
        </mxCell>
        <mxCell id="wWvR31Q34g6kSzC3Vsf_-129" value="&lt;span style=&quot;color: rgb(0, 0, 0); font-family: Helvetica; font-size: 12px; font-style: normal; font-variant-ligatures: normal; font-variant-caps: normal; font-weight: 400; letter-spacing: normal; orphans: 2; text-align: center; text-indent: 0px; text-transform: none; widows: 2; word-spacing: 0px; -webkit-text-stroke-width: 0px; background-color: rgb(248, 249, 250); text-decoration-thickness: initial; text-decoration-style: initial; text-decoration-color: initial; float: none; display: inline !important;&quot;&gt;data&lt;br&gt;&lt;br&gt;&lt;/span&gt;" style="text;whiteSpace=wrap;html=1;" vertex="1" parent="WIyWlLk6GJQsqaUBKTNV-1">
          <mxGeometry x="425" y="676.25" width="30" height="27.5" as="geometry" />
        </mxCell>
        <mxCell id="wWvR31Q34g6kSzC3Vsf_-130" value="&lt;span style=&quot;color: rgb(0, 0, 0); font-family: Helvetica; font-size: 12px; font-style: normal; font-variant-ligatures: normal; font-variant-caps: normal; font-weight: 400; letter-spacing: normal; orphans: 2; text-align: center; text-indent: 0px; text-transform: none; widows: 2; word-spacing: 0px; -webkit-text-stroke-width: 0px; background-color: rgb(248, 249, 250); text-decoration-thickness: initial; text-decoration-style: initial; text-decoration-color: initial; float: none; display: inline !important;&quot;&gt;codigo&lt;br&gt;&lt;/span&gt;" style="text;whiteSpace=wrap;html=1;" vertex="1" parent="WIyWlLk6GJQsqaUBKTNV-1">
          <mxGeometry x="372.5" y="676.25" width="30" height="27.5" as="geometry" />
        </mxCell>
        <mxCell id="wWvR31Q34g6kSzC3Vsf_-131" value="" style="ellipse;whiteSpace=wrap;html=1;aspect=fixed;fillColor=#000000;" vertex="1" parent="WIyWlLk6GJQsqaUBKTNV-1">
          <mxGeometry x="380.36" y="661.97" width="14.28" height="14.28" as="geometry" />
        </mxCell>
        <mxCell id="wWvR31Q34g6kSzC3Vsf_-132" value="" style="endArrow=none;html=1;rounded=0;entryX=0.5;entryY=1;entryDx=0;entryDy=0;exitX=0.5;exitY=0;exitDx=0;exitDy=0;" edge="1" parent="WIyWlLk6GJQsqaUBKTNV-1" source="wWvR31Q34g6kSzC3Vsf_-122" target="wWvR31Q34g6kSzC3Vsf_-51">
          <mxGeometry width="50" height="50" relative="1" as="geometry">
            <mxPoint x="400" y="667.0199999999999" as="sourcePoint" />
            <mxPoint x="423.46000000000004" y="644.88" as="targetPoint" />
          </mxGeometry>
        </mxCell>
        <mxCell id="wWvR31Q34g6kSzC3Vsf_-133" value="&lt;span style=&quot;color: rgb(0, 0, 0); font-family: Helvetica; font-size: 12px; font-style: normal; font-variant-ligatures: normal; font-variant-caps: normal; font-weight: 400; letter-spacing: normal; orphans: 2; text-align: center; text-indent: 0px; text-transform: none; widows: 2; word-spacing: 0px; -webkit-text-stroke-width: 0px; background-color: rgb(248, 249, 250); text-decoration-thickness: initial; text-decoration-style: initial; text-decoration-color: initial; float: none; display: inline !important;&quot;&gt;nome_paciente&lt;/span&gt;" style="text;whiteSpace=wrap;html=1;" vertex="1" parent="WIyWlLk6GJQsqaUBKTNV-1">
          <mxGeometry x="455" y="676.25" width="60" height="40" as="geometry" />
        </mxCell>
        <mxCell id="wWvR31Q34g6kSzC3Vsf_-134" value="MER (Modelo Entidade-Relacionamento" style="text;html=1;align=center;verticalAlign=middle;resizable=0;points=[];autosize=1;strokeColor=none;fillColor=none;" vertex="1" parent="WIyWlLk6GJQsqaUBKTNV-1">
          <mxGeometry x="45" y="315" width="240" height="30" as="geometry" />
        </mxCell>
        <mxCell id="wWvR31Q34g6kSzC3Vsf_-135" value="DER (Diagrama Entidade-Relacionamento" style="text;html=1;align=center;verticalAlign=middle;resizable=0;points=[];autosize=1;strokeColor=none;fillColor=none;" vertex="1" parent="WIyWlLk6GJQsqaUBKTNV-1">
          <mxGeometry x="35" y="500" width="250" height="30" as="geometry" />
        </mxCell>
      </root>
    </mxGraphModel>
  </diagram>
</mxfile>
